<?xml version="1.0" encoding="utf-8"?>
<!-- Generator: Adobe Illustrator 23.0.3, SVG Export Plug-In . SVG Version: 6.00 Build 0)  -->
<svg version="1.1" xmlns="http://www.w3.org/2000/svg" xmlns:xlink="http://www.w3.org/1999/xlink" x="0px" y="0px" width="382px"
	 height="126px" viewBox="0 0 382 126" style="enable-background:new 0 0 382 126;" xml:space="preserve">
<style type="text/css">
	.st0{display:none;}
	.st1{display:inline;}
	.st2{display:inline;fill:#EC6D88;}
</style>
<g id="レイヤー_1">
	<g class="st0">
		<title>logo</title>
		<path class="st1" d="M42,87.8h-0.5h-8.4H33c-1.1,0.6-2.9,0.6-2.9,0.6l0.3,0.7h4.3H43h0.5h0.2h4.1l-0.3-0.7c0,0-1.9,0-3.4-0.6h-1.9
			H42z"/>
		<path class="st1" d="M14.3,87.8c-1.3,0.6-3.2,0.6-3.2,0.6v0.7h4.3h8.9h4.3v-0.7c0,0-1.9,0-3.2-0.6h-2.6H14.3z"/>
		<path class="st2" d="M347.7,87.8c-1.3,0.6-3.2,0.6-3.2,0.6v0.7h4.3h8.9h4.3v-0.7c0,0-1.9,0-3.2-0.6h-2.6H347.7z"/>
		<g class="st1">
			<path d="M43,62c0.4-1.7,2.5-4.2,4.7-4.2c-1,0-1.9-0.4-2.7-1.1c-1.7,0.6-3.2,2.5-3.6,4c-0.3,4.6-2.3,7.8-5.7,9.2l0.1,0.4l5.1,14.9
				l0.1,0.2c0.2,0.5,0.8,0.8,1.4,1.1l-5.1-14.9l-0.1-0.4C40.7,69.8,42.7,66.6,43,62"/>
			<path d="M27.4,71.2c-0.5-0.1-1.2-0.2-1.7-0.4h-2.9v14.4c0,0.7,0.7,1.2,1.5,1.4v-0.1V72.1h3.4l-0.1-0.3L27.4,71.2z"/>
			<path d="M24.3,43.6H24c-0.7,0.3-1.2,0.7-1.2,1.4v23.3c0.2,0.6,0.8,1,1.5,1.2V46.4c0-1.9,4.3-2,4.3-2c1.2,0,2.1,0.2,2.9,0.5
				c-0.4-0.5-0.8-1-1.4-1.3h-1.5C28.6,43.6,24.3,43.6,24.3,43.6z"/>
			<path d="M44.1,55.8c-0.6-0.7-1-1.5-1.2-2.2c-0.2-3.8-1.6-6.6-4-8.3c1.5,1.7,2.4,4,2.6,7C41.7,53.4,42.8,54.9,44.1,55.8"/>
			<path d="M12.7,43.6h-1.6v0.7c0,0,1.5,0,2.8,0.5C13.8,44.3,13.3,43.9,12.7,43.6"/>
			<path d="M78.8,87.8c-0.7,0-0.9-0.7-3.5-0.7c-0.9,0-1.5,0.1-2.1,0.2C71.7,88,63,87.8,63,87.8h-8.6c-1.2,0.6-3.1,0.6-3.1,0.6v0.7
				h4.2h9h4.3c4.9,0,5.3-0.7,8-0.7s2.9,0.7,3.5,0.7H81V75.8h-0.7c0,1.5-0.3,3-0.8,4.3v7.8h-0.7V87.8z"/>
			<path d="M52.7,43.6h-1.3v0.8c0,0,1.5,0,2.7,0.5C53.9,44.2,53.4,43.8,52.7,43.6"/>
			<path d="M72.5,76.6C73.4,77.2,74,78,74,79v-5.9v-5.9c0,1-0.6,1.8-1.5,2.4v2.1V76.6z"/>
			<path d="M79.6,43.8v8.8c0.5,1.3,0.8,2.7,0.8,4.3H81V43.6h-0.7C80.1,43.6,79.9,43.7,79.6,43.8"/>
			<path d="M63,73.5v11.8c0,0.7,0.7,0.4,1.5,0.7c0,0,0,0.7,0,0.6V74.8c0,0,4.9,0.1,7.6,1.6C70.4,73.6,63,73.5,63,73.5"/>
			<path d="M68.8,43.6h-4.3h-0.1c-0.8,0.3-1.4,0.8-1.4,1.6v25.1c0,0,0.6,0,1.5-0.1V46.4c0-2,4.3-2.1,4.3-2.1c2.1,0,4.4,0.9,6.4,2.4
				c-1.4-1.5-3.1-2.6-4.9-3.2C69.9,43.6,69.4,43.6,68.8,43.6"/>
			<path d="M98.6,46.4c0-2,4.3-2.1,4.3-2.1v-0.7h-4.3h-0.2c-0.7,0.3-1.3,0.8-1.3,1.5v40.1c0,0.7,0.7,1.2,1.5,1.4v-0.1V46.4z"/>
			<path d="M115.9,69.9v6.6c0,7.1-3.5,11.3-10,11.4c-0.8,0.4-8.8,0-8.8,0h-8.4c-1.3,0.6-3.3,0.7-3.3,0.7v0.7h4.3h8.9h4.3h4.3
				c6.5,0,10.2-4.1,10.2-11.4v-6.6c0.1-1.7,2.3-4.8,4.6-4.8c-0.9,0-1.8-0.5-2.5-1.1C117.5,66,115.9,68.4,115.9,69.9"/>
			<path d="M115.9,60.2c0,1.3,1.3,3.3,2.9,4.3c-0.8-1-1.3-2.1-1.4-3v-6.6c0-4.5-1.4-7.8-4.1-9.6c1.7,1.9,2.6,4.7,2.6,8.3V60.2z"/>
			<path d="M87,43.6h-1.5v0.7c0,0,1.5,0,2.7,0.5C88.1,44.3,87.6,43.9,87,43.6"/>
			<path d="M102.9,44.4c1.2,0,2.1,0.2,2.9,0.5c-0.4-0.5-0.8-1-1.4-1.3h-1.5V44.4z"/>
			<path d="M156.8,44.6l8.8,29.9l1.7,5.8l0.3,0.9l0.6-1.9l-1.1-3.6l-8.8-29.9c0.1-1.5,3.8-1.6,3.8-1.6l-0.3-0.7h-4.2
				C157.2,43.8,156.8,44.1,156.8,44.6"/>
			<path d="M174.9,69.8l-3.1,10.5l-2.3,7.6h-3.9h-1.3h-3.7h-0.2c-1.1,0.5-2.8,0.5-2.8,0.5l0.3,0.8h4.3h3.7h1.3h3.9l2.3-7.6l3.1-10.5
				c0.6-1.7,3.6-4.7,5.9-4.7c-0.9,0-1.7-0.5-2.3-1.2C177.9,65.7,175.4,68.2,174.9,69.8"/>
			<path d="M182.3,44.9l-4.5,15.4c-0.4,1.5,0.5,3.8,2.1,4.5c-0.6-1-0.9-2.3-0.6-3.2l4.5-15.4c0.5-1.9,4.7-1.9,4.7-1.9l0.3-0.8h-4.9
				C183.1,43.8,182.4,44.3,182.3,44.9"/>
			<path d="M146.4,43.6h-2l0.2,0.7c0,0,1.9,0,3.4,0.6l0,0C147.8,44.3,147.2,43.9,146.4,43.6"/>
			<path d="M177.6,43.6h-1.1l-0.3,0.8c0,0,1.2,0,2.2,0.3C178.4,44.1,178.1,43.8,177.6,43.6"/>
			<path d="M212.9,76.6c0.9,0.6,1.5,1.4,1.5,2.4v-5.9v-5.9c0,1-0.6,1.8-1.5,2.4v2.1V76.6z"/>
			<path d="M203.4,73.5v11.8c0,0.7,0.7,1,1.5,1.3l0,0V74.8c0,0,4.9,0.1,7.6,1.6C210.8,73.6,203.4,73.5,203.4,73.5"/>
			<path d="M209.2,43.6h-4.3h-0.1c-0.8,0.3-1.4,0.8-1.4,1.6v25.1c0,0,0.6,0,1.5-0.1V46.4c0-2,4.3-2.1,4.3-2.1c2.1,0,4.4,0.9,6.4,2.4
				c-1.4-1.5-3.1-2.6-4.9-3.2C210.3,43.6,209.8,43.6,209.2,43.6"/>
			<path d="M220,43.8v8.8c0.5,1.3,0.8,2.7,0.8,4.3h0.7V43.6h-0.7C220.5,43.6,220.3,43.7,220,43.8"/>
			<path d="M219.2,87.8c-0.7,0-0.9-0.7-3.5-0.7c-0.9,0-1.5,0.1-2.1,0.2c-1.5,0.7-10.1,0.6-10.1,0.6h-8.6c-1.2,0.6-3.1,0.6-3.1,0.6
				v0.7h4.2h9h4.3c4.9,0,5.3-0.7,8-0.7s2.9,0.7,3.5,0.7h0.7V75.8h-0.7c0,1.5-0.3,3-0.8,4.3v7.8h-0.8L219.2,87.8L219.2,87.8z"/>
			<path d="M193.1,43.6h-1.3v0.8c0,0,1.5,0,2.7,0.5C194.3,44.2,193.8,43.8,193.1,43.6"/>
			<path d="M253.8,80.2v7.6h-0.7c-0.7,0-0.9-0.7-3.6-0.7c-0.9,0-1.5,0.1-2.1,0.2c-1.5,0.7-10.1,0.5-10.1,0.5h-8.5
				c-1.3,0.5-3.2,0.6-3.2,0.6v0.7h4.3h8.9h4.3c4.9,0,5.3-0.7,8-0.7s2.9,0.7,3.6,0.7h0.7V75.8h-0.7C254.6,77.4,254.3,78.9,253.8,80.2
				"/>
			<path d="M237.3,45.1v15.2c0,1.3,1.2,3.3,2.8,4.2c-0.8-1-1.3-2.1-1.3-2.9V46.4c0-1.9,4.3-2,4.3-2v-0.8h-4.3h-0.1
				C237.9,43.9,237.3,44.3,237.3,45.1"/>
			<path d="M237.3,69.9v15.4c0,0.7,0.7,1.2,1.5,1.4v-0.1V71.2c0-1.7,2.2-4.8,4.6-4.8c-0.9,0-1.8-0.5-2.6-1.1
				C238.9,66,237.3,68.4,237.3,69.9"/>
			<path d="M227,43.6h-1.4v0.8c0,0,1.5,0,2.8,0.5C228.2,44.2,227.7,43.8,227,43.6"/>
			<path d="M284.9,43.6h-1.1l-0.3,0.8c0,0,1.2,0,2.2,0.3C285.7,44.1,285.4,43.8,284.9,43.6"/>
			<path d="M282.2,69.8l-3.1,10.5l-2.3,7.6H273h-1.3H268h-0.2c-1.1,0.5-2.8,0.5-2.8,0.5l0.3,0.8h4.3h3.7h1.3h3.9l2.3-7.6l3.1-10.5
				c0.6-1.7,3.6-4.7,6-4.7c-0.9,0-1.7-0.5-2.3-1.2C285.2,65.7,282.7,68.2,282.2,69.8"/>
			<path d="M253.7,43.6h-2l0.2,0.7c0,0,1.9,0,3.4,0.6l0,0C255.1,44.3,254.5,43.9,253.7,43.6"/>
			<path d="M289.6,44.9L285,60.3c-0.4,1.5,0.5,3.8,2.1,4.5c-0.6-1-0.9-2.3-0.6-3.2l4.5-15.4c0.5-1.9,4.7-1.9,4.7-1.9l0.3-0.8h-4.9
				C290.4,43.8,289.7,44.3,289.6,44.9"/>
			<path d="M264.1,44.6l8.8,29.9l1.7,5.8l0.3,0.9l0.6-1.9l-1.1-3.6l-8.8-29.9c0.1-1.5,3.8-1.6,3.8-1.6l-0.3-0.7h-4.2
				C264.5,43.8,264.1,44.1,264.1,44.6"/>
			<path d="M320.2,76.6c0.9,0.6,1.5,1.4,1.5,2.4v-5.9v-5.9c0,1-0.6,1.8-1.5,2.4v2.1V76.6z"/>
			<path d="M300.4,43.6h-1.3v0.8c0,0,1.5,0,2.7,0.5C301.6,44.2,301.1,43.8,300.4,43.6"/>
			<path d="M316.5,43.6h-4.3h-0.1c-0.8,0.3-1.4,0.8-1.4,1.6v25.1c0,0,0.6,0,1.5-0.1V46.4c0-2,4.3-2.1,4.3-2.1c2.1,0,4.4,0.9,6.4,2.4
				c-1.4-1.5-3.1-2.6-4.9-3.2C317.6,43.6,317.1,43.6,316.5,43.6"/>
			<path d="M326.5,87.8c-0.7,0-0.9-0.7-3.5-0.7c-0.9,0-1.5,0.1-2.1,0.2c-1.5,0.7-10.1,0.6-10.1,0.6h-8.6c-1.2,0.6-3.1,0.6-3.1,0.6
				v0.7h4.2h9h4.3c4.9,0,5.3-0.7,8-0.7s2.9,0.7,3.5,0.7h0.7V75.8H328c0,1.5-0.3,3-0.8,4.3v7.8h-0.7V87.8z"/>
			<path d="M327.3,43.8v8.8c0.5,1.3,0.8,2.7,0.8,4.3h0.7V43.6H328C327.8,43.6,327.6,43.7,327.3,43.8"/>
			<path d="M310.7,73.5v11.8c0,0.7,0.7,0.6,1.5,0.9c0,0,0,0,0,0.4V74.8c0,0,4.9,0.1,7.6,1.6C318.1,73.6,310.7,73.5,310.7,73.5"/>
			<path d="M346,43.6h-1.5c-3.1,0-4.4,0.3-5.6,0.5c-2.8,1.3-5.4,3.9-6.6,7.3V57h0.7c0-7.5,6.6-12.6,11.5-12.6c0.2,0,1.6,0,2.8,0.4
				C347.2,44.2,346.6,43.8,346,43.6"/>
			<path d="M356.2,69.9v15.4c0,0.7,0.7,0.8,1.5,1.1c0,0,0-0.3,0,0V71.2c0-1.7,2.3-4.8,4.6-4.8c-0.9,0-1.8-0.5-2.5-1.1
				C357.8,66,356.2,68.4,356.2,69.9"/>
			<path d="M373.5,43.6c-0.3,0-0.5,0.1-0.8,0.2v8.9c0.5,1.3,0.8,2.7,0.8,4.3h0.7V43.6H373.5z"/>
			<path d="M362,43.6h-4.3h-0.1c-0.8,0.3-1.4,0.8-1.4,1.5v15.2c0,1.3,1.2,3.3,2.8,4.3c-0.8-1-1.3-2.1-1.3-2.9V46.4
				c0-1.9,4.3-2,4.3-2c2.1,0,4.4,0.9,6.4,2.4c-1.4-1.5-3.2-2.6-4.9-3.2C363,43.6,362.5,43.6,362,43.6"/>
			<path d="M31.1,52.4c0-7.2-0.2-10.6-5.6-10.6c0,0-4.3,0.1-4.3,2V67c0.5,1.5,4,1.7,4.3,1.7c5.3,0,5.5-3.5,5.5-10.6v-5.7
				C31,52.4,31.1,52.4,31.1,52.4z M44.5,85.8l0.3,0.7h-4.1h-0.2H40h-8.4h-4.3L27,85.8c0,0,4.2-0.1,3.7-1.9h-0.1l-4-11.8l-0.5-1.6
				l-0.4-1h-0.1h-0.1h-4.3v14.4c0,1.8,4.3,1.9,4.3,1.9v0.7h-4.3h-8.9H8.1v-0.7c0,0,4.3-0.1,4.3-1.9V68.5c0-1.7-2.2-4.8-4.6-4.8
				c2.4,0,4.6-3.1,4.6-4.8V43.7c0-1.9-4.3-2-4.3-2V41h4.3h8.9h4.3h4.3c6.1,0,9.7,3.6,10.1,10c0.4,1.7,2.5,4.2,4.8,4.2
				c-2.2,0-4.3,2.5-4.7,4.2c-0.3,4.6-2.3,7.8-5.7,9.2l0.1,0.4l5.1,14.9l0.1,0.2C40.5,85.7,44.5,85.8,44.5,85.8"/>
			<path d="M61.6,43.8v25.1c0,0,9.5-0.1,9.5-4.3v5.9v5.9c0-4.1-9.5-4.3-9.5-4.3v11.8c0,1.8,4.3,1.9,4.3,1.9c5,0,11.5-5.1,11.5-12.6
				h0.7v13.4h-0.7c-0.7,0-0.9-0.7-3.5-0.7c-2.7,0-3.1,0.7-8,0.7h-4.3h-9h-4.2v-0.7c0,0,4.2-0.1,4.2-1.9V68.5c0-1.7-2.2-4.8-4.6-4.8
				c2.4,0,4.6-3.1,4.6-4.8V43.8c0-2-4.2-2.1-4.2-2.1v-0.8h4.2h9h4.3c4.9,0,5.3,0.7,8,0.7s2.9-0.7,3.5-0.7h0.7v13.4h-0.7
				c0-7.6-6.5-12.6-11.5-12.6C65.8,41.7,61.6,41.8,61.6,43.8"/>
			<path d="M114.4,68.5v6.6c0,7.2-3.6,11.4-10.2,11.4h-4.3h-4.3h-8.9h-4.3v-0.7c0,0,4.3-0.1,4.3-1.9V68.5c0-1.7-2.2-4.8-4.6-4.8
				c2.4,0,4.6-3.1,4.6-4.8V43.8c0-2-4.3-2.1-4.3-2.1V41h4.3h8.9h4.3v0.7c0,0-4.3,0.1-4.3,2.1v40.1c0,1.8,4.3,1.9,4.3,1.9
				c5.3,0,5.6-3.5,5.6-10.6V52.4c0-7.2-0.2-10.6-5.6-10.6V41h4.3c6.5,0,10.2,4.1,10.2,11.3v6.6c0.1,1.7,2.3,4.8,4.6,4.8
				C116.6,63.7,114.4,66.9,114.4,68.5"/>
			<path d="M154.6,40.9L154.6,40.9h4.3l0.3,0.7c0,0-3.7,0.1-3.8,1.6l8.8,29.9l1.7,5.8l0.3,0.9l2-6.8l8.8-29.6
				c0.5-1.8-3.7-1.8-3.7-1.8l0.3-0.8h12.3l-0.3,0.8c0,0-4.2,0-4.7,1.9L176.2,59c-0.5,1.7,0.8,4.7,3.1,4.7c-2.3,0-5.3,3-6,4.7
				l-3,10.6l-2.3,7.6h-3.9h-1.3h-3.7h-4.3l-0.3-0.8c0,0,4.3,0,3.7-2l-4.5-15.2c-0.5-1.7-3.6-4.8-6-4.8c2.4,0,3.7-3,3.2-4.7
				l-4.5-15.4c-0.6-1.9-4.9-1.9-4.9-1.9l-0.2-0.7h4.3h9V40.9z"/>
			<path d="M202,43.8v25.1c0,0,9.5-0.1,9.5-4.3v5.9v5.9c0-4.1-9.5-4.3-9.5-4.3v11.8c0,1.8,4.3,1.9,4.3,1.9c5,0,11.5-5.1,11.5-12.6
				h0.7v13.4h-0.7c-0.7,0-0.9-0.7-3.5-0.7c-2.7,0-3.1,0.7-8,0.7H202h-9h-4.2v-0.7c0,0,4.2-0.1,4.2-1.9V68.5c0-1.7-2.2-4.8-4.6-4.8
				c2.4,0,4.6-3.1,4.6-4.8V43.8c0-2-4.2-2.1-4.2-2.1v-0.8h4.2h9h4.3c4.9,0,5.3,0.7,8,0.7s2.9-0.7,3.5-0.7h0.7v13.4h-0.7
				c0-7.6-6.5-12.6-11.5-12.6C206.2,41.7,202,41.8,202,43.8"/>
			<path d="M252.3,73.2v13.4h-0.7c-0.7,0-0.9-0.7-3.6-0.7c-2.7,0-3,0.7-8,0.7h-4.3h-8.9h-4.3v-0.7c0,0,4.3-0.1,4.3-1.9V68.5
				c0-1.7-2.3-4.8-4.6-4.8c2.3,0,4.6-3.1,4.6-4.8V43.7c0-1.9-4.3-2-4.3-2v-0.8h4.3h8.9h4.3v0.8c0,0-4.3,0.1-4.3,2v15.2
				c0,1.7,2.2,4.8,4.6,4.8c-2.4,0-4.6,3.1-4.6,4.8v15.4c0,1.8,4.3,1.9,4.3,1.9c4.9,0,11.6-5.1,11.6-12.6
				C251.6,73.2,252.3,73.2,252.3,73.2z"/>
			<path d="M261.9,40.9L261.9,40.9h4.3l0.3,0.7c0,0-3.7,0.1-3.8,1.6l8.8,29.9l1.7,5.8l0.3,0.9l2-6.8l8.8-29.6
				c0.5-1.8-3.7-1.8-3.7-1.8l0.3-0.8h12.3l-0.3,0.8c0,0-4.2,0-4.7,1.9L283.5,59c-0.5,1.7,0.8,4.7,3.1,4.7c-2.3,0-5.3,3-6,4.7
				l-3,10.6l-2.3,7.6h-3.9h-1.3h-3.7h-4.3l-0.3-0.8c0,0,4.3,0,3.7-2L261,68.6c-0.5-1.7-3.6-4.8-6-4.8c2.4,0,3.7-3,3.2-4.7l-4.5-15.4
				c-0.6-1.9-4.9-1.9-4.9-1.9l-0.2-0.7h4.3h9L261.9,40.9L261.9,40.9z"/>
			<path d="M309.3,43.8v25.1c0,0,9.5-0.1,9.5-4.3v5.9v5.9c0-4.1-9.5-4.3-9.5-4.3v11.8c0,1.8,4.3,1.9,4.3,1.9c5,0,11.5-5.1,11.5-12.6
				h0.7v13.4H325c-0.7,0-0.9-0.7-3.5-0.7c-2.7,0-3.1,0.7-8,0.7h-4.3h-9H296v-0.7c0,0,4.2-0.1,4.2-1.9V68.5c0-1.7-2.2-4.8-4.6-4.8
				c2.4,0,4.6-3.1,4.6-4.8V43.8c0-2-4.2-2.1-4.2-2.1v-0.8h4.2h9h4.3c4.9,0,5.3,0.7,8,0.7s2.9-0.7,3.5-0.7h0.7v13.4H325
				c0-7.6-6.5-12.6-11.5-12.6C313.5,41.7,309.3,41.8,309.3,43.8"/>
			<path d="M371.3,40.9v13.4h-0.7c0-7.6-6.6-12.6-11.6-12.6c0,0-4.3,0.1-4.3,2v15.2c0,1.7,2.3,4.8,4.6,4.8c-2.3,0-4.6,3.1-4.6,4.8
				v15.4c0,1.8,4.3,1.9,4.3,1.9v0.7h-4.3h-8.9h-4.3v-0.7c0,0,4.3-0.1,4.3-1.9V68.5c0-1.7-2.2-4.8-4.6-4.8c2.4,0,4.6-3.1,4.6-4.8
				V43.7c0-1.9-3.9-2-4.3-2c-4.9,0-11.5,5.1-11.5,12.6h-0.7V40.9h0.7c0.7,0,0.9,0.7,3.6,0.7c2.6,0,3-0.7,7.9-0.7h4.3h8.9h4.3
				c4.9,0,5.3,0.7,8,0.7c2.6,0,2.8-0.7,3.5-0.7H371.3z"/>
		</g>
	</g>
</g>
<g id="レイヤー_2">
	<polygon points="123.2,47.6 124.8,49.2 122.8,37.9 121.7,39 	"/>
	<path d="M123.5,76.9l-1.4,7.7l-1.1-1.1c-0.1-0.1-0.7-0.3-2.2-0.3h-15.1c0,0.1-0.1,0.2-0.1,0.2l-1.1,1.3h17.8c1.5,0,2.1,0.2,2.2,0.3
		l1.1,1.1l2-11.3l-1.8,1.8C123.7,76.8,123.6,76.9,123.5,76.9"/>
	<path d="M151.3,45c3.7,4.1,6,9.6,6,15.5c0,12.7-10.3,23.1-23,23.1h-4.5c0,0.1-0.1,0.2-0.2,0.2l-1.1,1.3h7.3c12.7,0,23-10.3,23-23.1
		C158.9,55.3,155.9,49.2,151.3,45"/>
	<path d="M241.2,16.2c1.3,0,2.3,0.2,3.1,0.5c0.1,0.3,0.1,0.6,0.1,1c0,1.3-0.8,2.1-1.6,2.1c0,0-0.1,0-0.1,0c-0.3,0-0.7-0.1-0.9-0.3
		c-0.2-0.1-0.3-0.3-0.3-0.5v-1.6l-1.3,0.9c-0.6,0.4-1.4,1.2-1.4,2.7c0,1.6,0.8,3.3,2.3,4.3c0.3,0.2,0.6,0.4,1,0.6
		c0.7,0.3,1.5,0.5,2.4,0.5c3.9,0,8-3.3,8-8.7c0-2.2-0.7-4.5-2-6.4c-0.2-0.3-0.4-0.6-0.7-0.9c-2.4-2.8-6.3-4.7-11.7-4.7
		c-12.5,0-18.5,9.7-18.5,29.5v15.4c0,18.2-4.5,26.8-9.5,29.3V33.9c0-1.9,0.2-3,0.7-3.6l1.1-1.3h-2.8c-0.4,0.6-0.5,1.7-0.5,3.3v48
		c-0.5,0.1-0.9,0.2-1.3,0.2V31c0-0.8,0-1.4,0.1-2c0.1-0.7,0.3-1.2,0.5-1.6c0,0,0,0,0,0l1.1-1.3l-7.3,0c-0.8-0.1-1.7-0.1-2.5-0.1
		c-14.2,0-29.3,9.9-29.3,24.6c0,4.7,1.8,9.5,5.4,12.6c0.3,0.2,0.6,0.5,0.9,0.7c2.1,1.5,4.7,2.5,7.8,2.5c7.5,0,11.5-5.7,11.5-11.1
		c0-1.7-0.4-3.2-1.1-4.4c-0.2-0.3-0.4-0.7-0.6-1c-1.5-1.9-3.8-2.9-6-2.9c-3.6,0-5.8,2.8-5.8,5.4c0,1.6,0.8,2.3,1.4,2.7l0.4,0.3
		l0.9,0.7v-1.6c0-0.3,0.2-0.5,0.5-0.6c0.2-0.1,0.5-0.2,0.7-0.2c0.7,0,1.4,0.5,1.6,1.4c-0.1,0-0.2,0-0.2,0c-0.6,0-1.2,0.4-1.2,0.8
		v1.6l-0.8-0.6c0.3,0.5,0.6,0.9,1,1.1c-0.6,0.4-1.4,0.7-2.4,0.7c-0.7,0-1.3-0.1-1.9-0.4c-0.7-1.4-1-3-1-4.6
		c0-7.6,7.6-15.8,19.1-16.8v44c0,2.1-0.4,4.6-0.6,5.1l0,0l-0.9,0.9l1.2,0.4c0.3,0.1,0.5,0.2,0.8,0.2c0.7,0.2,1.4,0.3,2,0.4
		c1,0.1,2,0.1,2.6,0.1c10.1,0,22.2-6.4,22.3-37.1V34.9c0-15,3.4-21.7,11.1-21.7c3.1,0,4.8,1.1,5.6,2.4c-1-0.6-2.3-1-4.2-1
		c-7.7,0-11.1,6.7-11.1,21.7v16.1c-0.1,30.6-12.2,37.1-22.3,37.1c-1,0-2.7-0.1-4.3-0.4l-0.8,0.8l1.2,0.4c1.9,0.7,4.2,0.8,5.4,0.8
		c10.1,0,22.2-6.4,22.3-37.1V37.8C230.1,22.8,233.5,16.2,241.2,16.2 M179.1,52.2c0,2.1,0.6,4.1,1.6,5.6c-2-1.4-3-4.2-3-7
		c0-8.2,8.6-16.9,21.5-16.9h0.5v1.4C187.4,35.7,179.1,44.2,179.1,52.2"/>
	<path d="M195.1,51.5c1,1.3,1.6,3.1,1.6,5.2c0,5.4-4,11.1-11.5,11.1c-3.5,0-6.3-1.2-8.6-3.1c2.4,2.8,5.8,4.6,10.1,4.6
		c7.5,0,11.5-5.7,11.5-11.1C198.3,55.2,196.9,52.9,195.1,51.5"/>
	<path d="M246,27.7c-1.3,0-2.4-0.4-3.3-1c1,1.4,2.7,2.5,4.9,2.5c3.9,0,8-3.3,8-8.7c0-3.2-1.4-6.4-4.2-8.7c1.7,2.1,2.6,4.6,2.6,7.2
		C253.9,24.4,249.9,27.7,246,27.7"/>
	<polygon points="255.7,47.6 257.3,49.2 255.3,37.9 254.2,39 	"/>
	<g>
		<path d="M256,76.9l-1.4,7.7l-1.1-1.1c-0.1-0.1-0.7-0.3-2.2-0.3h-15.1c0,0.1-0.1,0.2-0.1,0.2l-1.1,1.3h17.8c1.5,0,2.1,0.2,2.2,0.3
			l1.1,1.1l2-11.3l-1.8,1.8C256.2,76.8,256.1,76.9,256,76.9"/>
		<path d="M282.2,76.9l-1.4,7.7l-1.1-1.1c-0.1-0.1-0.7-0.3-2.2-0.3h-15.1c-0.1,0.1-0.1,0.2-0.2,0.2l-1.1,1.3H279
			c1.5,0,2.1,0.2,2.2,0.3l1.1,1.1l2-11.3l-1.8,1.8C282.4,76.8,282.3,76.9,282.2,76.9"/>
	</g>
	<polygon points="336.6,47.6 338.1,49.2 336.2,37.9 335.1,39 	"/>
	<path d="M336.8,76.9l-1.4,7.7l-1.1-1.1c-0.1-0.1-0.7-0.3-2.2-0.3H317c0,0.1-0.1,0.2-0.2,0.2l-1.1,1.3h17.8c1.5,0,2.1,0.2,2.2,0.3
		l1.1,1.1l2-11.3l-1.8,1.8C337.1,76.8,337,76.9,336.8,76.9"/>
	<path d="M368.2,39l1.5,8.6l-1.8-1.8c-0.6-0.5-1.9-0.7-2.8-0.7H359v33.3c0,2.3,0.4,3.2,0.7,3.6l1,1.3h-8.2c0,0.1-0.1,0.2-0.1,0.2
		l-1.1,1.3h11l-1-1.3c-0.3-0.3-0.7-1.2-0.7-3.6V46.6h6.1c0.9,0,2.2,0.2,2.8,0.7l1.8,1.8l-2-11.3L368.2,39z"/>
	<path d="M139.1,103c0-3.1-1.1-6.4-3.1-9c-0.2-0.3-0.5-0.6-0.7-0.9c-2.5-2.9-6.2-4.8-10.7-4.8c-6.6,0-11.8,4.9-11.8,11.1
		c0,3,1.3,5.3,3.1,6.7c0.3,0.2,0.6,0.4,0.9,0.6c1.1,0.6,2.4,1,3.6,1c3.1,0,5.1-1.8,5.7-3.9c0.1-0.5,0.2-0.9,0.2-1.4
		c0-0.6-0.2-1.2-0.5-1.7c-0.2-0.4-0.6-0.8-0.9-1c0.8-0.6,1.9-0.8,2.7-0.8c0.9,0,1.8,0.2,2.6,0.6c0.6,1.1,0.9,2.3,0.9,3.5
		c0,4.8-3.6,9.7-10.5,9.7c-4.7,0-8.8-2.2-12.4-5.5c-3.7-4.1-6.9-9-9.8-13.5c-3.1-4.7-7.1-10.7-11.5-14.9c3.8,4,7.2,9.2,10,13.3
		c3.1,4.8,6.6,10.1,10.6,14.3c-4.6-4.4-8.5-10.4-12-15.6c-2.6-3.9-5.8-8.7-9.3-12.6c-0.2-0.3-0.5-0.5-0.7-0.8
		c-0.3-0.3-0.5-0.6-0.8-0.8c8.1-4.7,13.5-14.5,13.5-24.6c0-8.3-3.5-15.6-9.2-20.9c4.8,5.1,7.7,11.9,7.7,19.3
		c0,10.2-5.4,20-13.6,24.7c-0.5-0.4-1-0.9-1.5-1.2c8.3-4.6,13.8-14.5,13.8-24.8c0-7.1-2.6-13.5-6.9-18.6c-0.3-0.3-0.5-0.6-0.8-0.9
		c-5.8-6.1-14.2-9.9-23.8-9.9c-14.2,0-29.3,9.9-29.3,24.6c0,4.7,1.8,9.5,5.4,12.6c0.3,0.2,0.6,0.5,0.9,0.7c2.1,1.5,4.7,2.5,7.8,2.5
		c7.4,0,11.5-5.7,11.5-11.1c0-1.7-0.4-3.2-1.1-4.4c-0.2-0.3-0.4-0.7-0.6-1c-1.5-1.9-3.8-2.9-6-2.9c-3.6,0-5.8,2.8-5.8,5.4
		c0,1.5,0.8,2.3,1.4,2.7L48,49l0.9,0.7v-1.6c0-0.3,0.2-0.5,0.5-0.6c0.2-0.1,0.5-0.2,0.7-0.2c0.7,0,1.4,0.5,1.6,1.4
		c-0.1,0-0.2,0-0.3,0c-0.5,0-1.2,0.3-1.2,0.8V51l-0.8-0.6c0.3,0.5,0.6,0.9,1,1.1c-0.6,0.4-1.4,0.7-2.4,0.7c-0.7,0-1.3-0.1-1.9-0.4
		c-0.7-1.4-1-3-1-4.6c0-8.2,8.6-16.9,21.5-16.9c6.2,0,11.8,2.1,16,5.6c3,3.6,4.7,8.1,4.7,13c0,6-2.6,12.1-6.7,16
		c-2.9,2.7-6.5,4.2-10.3,4.1V50.7c0-2.3,0.4-3.2,0.7-3.6l1-1.3h-2.7c-0.2,0.5-0.5,1.4-0.5,3.3V69l-0.2,0v6.8l0.1,0.8l0.2,0v8.2
		c0,2.3,0.4,3.2,0.7,3.6l1,1.3h-8.2c0,0.1-0.1,0.2-0.2,0.2l-1.1,1.3h11l-1-1.3c-0.3-0.3-0.7-1.2-0.7-3.6V78L70,78l-0.1-0.8v-0.5
		c0.1,0,0.3,0,0.5,0c0.1,0,0.3,0,0.4,0c0.3,0,0.5,0,0.5,0c0,0,0.1,0,0.1,0c2.2,0.1,4.6,1.9,7.1,4.5c-2-1.9-4-3.1-5.8-3.1
		c-0.1,0-0.3,0-0.6,0c-0.2,0-0.5,0-0.7,0v0.7l0.1,0.8l0.8,0.1c0.2,0,0.9,0,1.3-0.1c0.3,0,0.5,0,0.6,0c1.6,0,3.3,0.9,5.1,2.4
		c3,3.3,5.9,7.7,8.6,11.6l0.9,1.4c4,5.8,8.2,12,13.2,16.8c0.3,0.3,0.5,0.5,0.8,0.8c5.1,4.7,11,7.9,18.3,7.9
		C132.4,120.5,139.1,111.6,139.1,103 M65.1,28.9c-12.9,0-21.5,8.7-21.5,16.9c0,2.1,0.6,4.1,1.6,5.6c-2-1.4-3-4.2-3-7
		c0-8.2,8.6-16.9,21.5-16.9c7.4,0,13.9,2.9,18.2,7.6C77.7,31.2,71.8,28.9,65.1,28.9 M126.2,97.2c-1.5,0-4,0.9-4,3.2
		c0,0.2,0,0.4,0.1,0.6c-0.7-0.1-1.4-0.8-1.4-2c0-2.3,2.4-3.2,4-3.2c2,0,3.7,1.1,4.8,2.5C128.7,97.7,127.5,97.2,126.2,97.2"/>
	<path d="M69.2,88.4l-1-1.3c-0.3-0.3-0.7-1.2-0.7-3.6V47.8c0-0.8,0.1-1.5,0.1-2c0.1-0.9,0.4-1.3,0.5-1.6c0,0,0,0,0,0l1-1.3h-11
		l1.1,1.3c0.2,0.2,0.3,0.6,0.4,1c0,0-0.1-0.1-0.1-0.1c0,0.1,0.1,0.1,0.1,0.2c0.1,0.6,0.2,1.4,0.2,2.5v7.7c-1.7,3.3-5.2,5.9-10.2,5.9
		c-3.5,0-6.3-1.2-8.6-3.1c2.4,2.8,5.8,4.6,10.1,4.6c3.8,0,6.7-1.5,8.7-3.7v24.2c0,1.9-0.2,3-0.7,3.6l-1.1,1.3h2.4h2.1H69.2z"/>
	<path d="M100.6,80.6l-1.1,1.3h2.4h2.1h13.3c1.5,0,2.1,0.2,2.2,0.3l1.1,1.1l1-5.9l0.4-2.2l0.6-3.2l-1.1,1.1l0-12.2l-1.5,2
		c0,0-0.1,0-0.1,0.1l0,8.3c0,0,0.1,0.1,0.1,0.1l1.4,1.9l-0.7,0.7c-0.6,0.5-1.9,0.7-2.8,0.7h-6.4v-3.8h5.4c1.2,0,2,0.1,2.5,0.3
		l-0.9-1.1v-6.6l0-2.1v-3.2l-1.5,2c-0.2,0.2-1.4,0.5-3,0.5h-2.5V46.6h8.4c0.9,0,2.2,0.2,2.8,0.7l-1.1-1.1l-1.2-7l-0.3-2l-0.4-2.3
		l-1.1,1.1c0,0-0.4,0.3-2.1,0.3H99.6l1,1.3c0.3,0.4,0.7,1.7,0.7,3.3v36C101.3,78.9,101.1,80,100.6,80.6 M115.6,69.1h-5.4v5.4h-1.4
		v-6.7h5.5c1.9,0,2.9,0.3,3,0.5l0.9,1.1C117.7,69.3,116.8,69.1,115.6,69.1 M121.4,45.8c-0.6-0.5-1.9-0.7-2.8-0.7h-8.4v15.3h-1.4
		V43.7h8.4c0.9,0,2.2,0.2,2.8,0.7L121.4,45.8z"/>
	<path d="M126.8,80.9l-1.1,1.3h2.4h2.1h2.7c12.7,0,23-10.3,23-23.1c0-5.6-2-10.8-5.4-14.8c-0.2-0.3-0.5-0.6-0.7-0.8
		c-4.2-4.6-10.2-7.4-16.9-7.4h-7.2l1,1.3c0.3,0.4,0.7,1.7,0.7,3.3v36.7C127.5,79.2,127.2,80.3,126.8,80.9 M135,43.9
		c3.8,0.5,7.2,2.3,9.6,5.1c-2.2-2-5.1-3.3-8.2-3.7v29c-0.4,0.1-0.9,0.2-1.3,0.2V43.9z M137.9,73.8v-27c2.7,0.3,5.3,1.4,7.3,3
		c2,2.6,3.2,5.8,3.2,9.3C148.4,65.8,144,71.7,137.9,73.8"/>
	<path d="M249.9,81.9c1.5,0,2.1,0.2,2.2,0.3l1.1,1.1l1-5.9l0.4-2.2l0.6-3.2l-1.1,1.1l0-12.2l-1.5,2c0,0,0,0-0.1,0.1l0,8.3
		c0,0,0.1,0.1,0.1,0.1l1.4,1.9l-0.7,0.7c-0.6,0.5-1.9,0.7-2.8,0.7h-6.4v-3.8h5.4c1.2,0,2,0.1,2.5,0.3l-0.9-1.1v-6.6l0-2.1v-3.1
		l-1.5,2c-0.2,0.2-1.4,0.5-3,0.5h-2.5V46.6h8.4c0.9,0,2.2,0.2,2.8,0.7l-1.1-1.1l-1.2-7l-0.3-2l-0.4-2.3l-1.1,1.1
		c0,0-0.4,0.3-2.1,0.3h-17.1l1,1.3c0.3,0.4,0.7,1.7,0.7,3.3v36c0,1.9-0.2,3-0.7,3.6l-1.1,1.3h2.4h2.1H249.9z M248.1,69.1h-5.4v5.4
		h-1.4v-6.7h5.5c1.9,0,2.9,0.3,3,0.5l0.9,1.1C250.2,69.3,249.4,69.1,248.1,69.1 M253.9,45.8c-0.6-0.5-1.9-0.7-2.8-0.7h-8.4v15.3
		h-1.4V43.7h8.4c0.9,0,2.2,0.2,2.8,0.7L253.9,45.8z"/>
	<path d="M276.1,81.9c1.5,0,2.1,0.2,2.2,0.3l1.1,1.1l1-5.9l0.4-2.2l0.6-3.2l-1.8,1.8c-0.6,0.5-1.9,0.7-2.8,0.7h-6.4V43.9
		c0-1.5,0.3-2.8,0.7-3.2l1.2-1.4h-2.9c-0.3,0.6-0.5,1.7-0.5,3v32.2h-1.4V41c0-0.6,0-1.2,0.1-1.7c0.1-0.7,0.3-1.3,0.5-1.5l0,0
		l1.2-1.4h-11.1l1,1.3c0.3,0.4,0.7,1.7,0.7,3.3v36c0,1.9-0.2,3-0.7,3.6l-1.1,1.3h2.4h2.1H276.1z"/>
	<path d="M300.2,81.9l-1-1.3c-0.4-0.6-0.4-1.7,0.1-3.4l9.2-35.7c0.2-0.8,0.5-1.6,0.9-2.2c0.3-0.6,0.7-1.1,1.1-1.5l0.1-0.1l1.5-1.4
		h-11.8l1,1.3c0.4,0.6,0.4,1.7-0.1,3.4l-5.4,23l-5-20.2c-0.5-1.7-0.5-2.8-0.1-3.3l1-1.3H289c-0.3,0.6-0.2,1.7,0.2,3.1l5.9,24.1
		l-0.5,2.1l-6.8-27.6c-0.2-0.7-0.3-1.3-0.3-1.8c-0.1-0.7,0-1.2,0.3-1.6c0,0,0,0,0,0l1-1.3h-12l1.5,1.4l0.1,0.1
		c0.2,0.2,0.4,0.4,0.5,0.6c0.5,0.7,1,1.8,1.4,3.1l9.2,35.7c0.5,1.7,0.5,2.8,0.1,3.3l-1,1.3h2.4h1.8H300.2z"/>
	<path d="M330.8,81.9c1.5,0,2.1,0.2,2.2,0.3l1.1,1.1l1-5.9l0.4-2.2l0.6-3.2l-1.1,1.1l0-12.2l-1.5,2c0,0-0.1,0-0.1,0.1l0,8.3
		c0,0,0.1,0.1,0.1,0.1l1.4,1.9l-0.7,0.7c-0.6,0.5-1.9,0.7-2.8,0.7h-6.4v-3.8h5.4c1.2,0,2,0.1,2.5,0.3l-0.9-1.1v-6.6v-2.1l0-3.1
		l-1.5,2c-0.2,0.2-1.4,0.5-3,0.5h-2.5V46.6h8.4c0.9,0,2.2,0.2,2.8,0.7l-1.1-1.1l-1.2-7l-0.3-2l-0.4-2.3l-1.1,1.1
		c0,0-0.4,0.3-2.1,0.3h-17.1l1,1.3c0.2,0.3,0.4,0.8,0.5,1.6h-2.9c-0.7,0.7-1.4,2-1.8,3.6l-9.2,35.7c-0.5,1.7-0.5,2.8-0.1,3.4l1,1.3
		h-8.8c0,0.1-0.1,0.2-0.1,0.2l-1,1.3h11.5l-1-1.3c-0.4-0.6-0.4-1.7,0.1-3.4l9.2-35.7c0.5-1.6,1.2-3,2-3.7l1.3-1.1
		c0.1,0.4,0.1,0.9,0.1,1.4v36c0,1.9-0.2,3-0.7,3.6l-1.1,1.3h2.4h2.1H330.8z M329,69.1h-5.4v5.4h-1.4v-6.7h5.4c1.9,0,2.9,0.3,3,0.5
		l0.9,1.1C331,69.3,330.2,69.1,329,69.1 M334.7,45.8c-0.6-0.5-1.9-0.7-2.8-0.7h-8.4v15.3h-1.4V43.7h8.4c0.9,0,2.2,0.2,2.8,0.7
		L334.7,45.8z"/>
	<path d="M359.4,81.9l-1-1.3c-0.3-0.3-0.7-1.2-0.7-3.6V43.7h6.1c0.9,0,2.2,0.2,2.8,0.7l1.8,1.8l-1.2-7l-0.3-2l-0.4-2.3l-1.1,1.1
		c0,0-0.4,0.3-2.1,0.3h-18.6c-1.7,0-2.1-0.3-2.1-0.3l-1.1-1.1l-2,11.3l1.8-1.8c0,0,0.1,0,0.1,0c0.4-0.3,1.2-0.5,1.9-0.6
		c0.3,0,0.5-0.1,0.8-0.1h6.1v1.4h-4.7c-0.8,0-1.8,0.2-2.4,0.5l-0.6,3.6l1.8-1.8c0.5-0.4,1.8-0.7,2.8-0.7h3.2V77c0,1.9-0.2,3-0.7,3.6
		l-1.1,1.3h2.4h2.1H359.4z"/>
</g>
</svg>
